 http://img99.imageshack.us/img99/34/blubberellaoriginal.jpg

Country.......: Germany, Canada
Genre.........: Comedy
Date release..: 2011 [World]
Director......: Uwe Boll
Writers.......: Uwe Boll, Lindsay Hollister
Duration......: 83 min.
More..........: http://www.imdb.com/title/tt1756427
Trailer.......: http://www.imdb.com/video/imdblink/vi1536728345
Trailer.......:

Pilot :
An action comedy centered on an overweight woman whose footsteps cause explosions and whose dual swords are used against anyone who makes fun of her.

Cats :
Willam Belli   	 ...  	Vadge
Uwe Boll 	... 	Adolf Hitler
Brendan Fletcher 		
Natalia Guslistaya 	... 	Natasha
Lindsay Hollister 	... 	Blubberella
Clint Howard 		
Steffen Mennekes 	... 	Lt. Caspar Jaeger
Michael Pare 		
Davorka Tovilo

Data Technical :
!!! SAMPLE !!!
Audio.....: English
Subtitles.: None
Format                           : AVI
Format/Info                      : Audio Video Interleave
File size                        : 700 MiB
Duration                         : 1h 23mn
Overall bit rate                 : 1 179 Kbps
Writing application              : VirtualDubMod 1.5.4.1 (build 2178/release)
Writing library                  : VirtualDubMod build 2178/release
Video
ID                               : 0
Format                           : MPEG-4 Visual
Format profile                   : Advanced Simple@L5
Format settings, BVOP            : Yes
Format settings, QPel            : No
Format settings, GMC             : No warppoints
Format settings, Matrix          : Custom
Codec ID                         : XVID
Codec ID/Hint                    : XviD
Duration                         : 1h 23mn
Bit rate                         : 1 051 Kbps
Width                            : 720 pixels
Height                           : 304 pixels
Display aspect ratio             : 2.35:1
Frame rate                       : 25.000 fps
Color space                      : YUV
Chroma subsampling               : 4:2:0
Bit depth                        : 8 bits
Scan type                        : Progressive
Bits/(Pixel*Frame)               : 0.192
Stream size                      : 624 MiB (89%)
Writing library                  : XviD 1.2.1 (UTC 2008-12-04)
Audio
ID                               : 1
Format                           : MPEG Audio
Format version                   : Version 1
Format profile                   : Layer 3
Mode                             : Joint stereo
Mode extension                   : MS Stereo
Codec ID                         : 55
Codec ID/Hint                    : MP3
Duration                         : 1h 23mn
Bit rate mode                    : Variable
Bit rate                         : 115 Kbps
Nominal bit rate                 : 128 Kbps
Channel(s)                       : 2 channels
Sampling rate                    : 48.0 KHz
Stream size                      : 68.2 MiB (10%)
Alignment                        : Aligned on interleaves
Interleave, duration             : 24 ms (0.60 video frame)
Interleave, preload duration     : 160 ms
Writing library                  : LAME3.98r
Encoding settings                : -m j -V 4 -q 2 -lowpass 17 --abr 128

Screen : 
http://img200.imageshack.us/img200/1315/blubberella2011s1.jpg 
http://img21.imageshack.us/img21/8627/blubberella2011s2.jpg 
http://img708.imageshack.us/img708/9646/blubberella2011s3.jpg 
http://img837.imageshack.us/img837/8366/blubberella2011s4.jpg 
http://img59.imageshack.us/img59/3599/blubberella2011s5.jpg